<svg width="20" height="17" viewBox="0 0 20 17" fill="none" xmlns="http://www.w3.org/2000/svg">
<path d="M14.9995 0H4.99951C1.99951 0 -0.000488281 1.5 -0.000488281 5V12C-0.000488281 15.5 1.99951 17 4.99951 17H14.9995C17.9995 17 19.9995 15.5 19.9995 12V5C19.9995 1.5 17.9995 0 14.9995 0ZM15.4695 6.09L12.3395 8.59C11.6795 9.12 10.8395 9.38 9.99951 9.38C9.15951 9.38 8.30951 9.12 7.65951 8.59L4.52951 6.09C4.20951 5.83 4.15951 5.35 4.40951 5.03C4.66951 4.71 5.13951 4.65 5.45951 4.91L8.58951 7.41C9.34951 8.02 10.6395 8.02 11.3995 7.41L14.5295 4.91C14.8495 4.65 15.3295 4.7 15.5795 5.03C15.8395 5.35 15.7895 5.83 15.4695 6.09Z" fill="#E8E8E8"/>
</svg>
